<svg xmlns="http://www.w3.org/2000/svg" enable-background="new 0 0 64 64" viewBox="0 0 64 64" id="loan-agreement">
  <polyline fill="#2769b3" points="48 62 48 2 6 2 6 62"></polyline>
  <polygon fill="#3c82c2" points="44 61.967 44 62 2 62 2 6 35 6 44 15"></polygon>
  <path fill="#56a0d9" d="M5,6v48c0,2.761,2.239,5,5,5h34V15l-9-9H5z"></path>
  <polyline fill="#19529d" points="35 6 35 15 44 15"></polyline>
  <path fill="#f9cb66" d="M10,16c-0.551,0-1-0.449-1-1s0.449-1,1-1s1,0.449,1,1h2c0-1.302-0.839-2.402-2-2.816V11H9v1.184
		C7.839,12.598,7,13.698,7,15c0,1.654,1.346,3,3,3c0.551,0,1,0.449,1,1s-0.449,1-1,1s-1-0.449-1-1H7c0,1.302,0.839,2.402,2,2.816V23
		h2v-1.184c1.161-0.414,2-1.514,2-2.816C13,17.346,11.654,16,10,16z"></path>
  <rect width="10" height="2" x="17" y="11" fill="#fff"></rect>
  <rect width="14" height="2" x="17" y="15" fill="#fff"></rect>
  <rect width="24" height="2" x="17" y="19" fill="#fff"></rect>
  <rect width="22" height="4" x="18" y="24" fill="#fff"></rect>
  <rect width="16" height="2" x="5" y="31" fill="#fff"></rect>
  <rect width="13" height="2" x="5" y="35" fill="#fff"></rect>
  <path fill="#fff" d="M10,59c-0.129,0-0.259-0.025-0.383-0.076C9.244,58.769,9,58.404,9,58v-3c0-0.551-0.449-1-1-1
		s-1,0.449-1,1v4H5v-4c0-1.654,1.346-3,3-3s3,1.346,3,3v0.586l1.293-1.293c0.285-0.286,0.714-0.373,1.09-0.217
		C13.756,54.231,14,54.596,14,55v1.613l1.684-0.562c0.359-0.121,0.755-0.027,1.023,0.242C17.156,56.742,17.779,57,18.414,57H20v2
		h-1.586c-0.962,0-1.878-0.306-2.635-0.872l-2.462,0.821c-0.306,0.101-0.641,0.051-0.901-0.138C12.154,58.623,12,58.321,12,58
		v-0.586l-1.293,1.293C10.516,58.898,10.26,59,10,59z"></path>
  <rect width="18" height="2" x="5" y="39" fill="#fff"></rect>
  <rect width="16" height="2" x="5" y="43" fill="#fff"></rect>
  <rect width="17" height="2" x="10" y="47" fill="#fff"></rect>
  <path fill="#edb8ac" d="M55,55.88c0,0.04,0,0.08-0.01,0.12c-0.06,1.11-0.98,2-2.11,2H52c0,0.55-0.22,1.05-0.59,1.41
		C51.05,59.78,50.55,60,50,60c-0.64,0-1.25-0.25-1.71-0.71L48,59c0,0.55-0.22,1.05-0.59,1.41C47.05,60.78,46.55,61,46,61
		c-0.64,0-1.25-0.25-1.71-0.71L44,60c0,0.55-0.22,1.05-0.59,1.41C43.05,61.78,42.55,62,42,62c-0.64,0-1.26-0.25-1.71-0.71L34,55h-2
		V43l2.56,0.64C34.2,44.04,34,44.56,34,45.09c0,0.58,0.23,1.14,0.64,1.55c0.87,0.87,2.05,1.36,3.28,1.36c1.34,0,2.64-0.47,3.68-1.33
		l2.76-2.31l10.02,10.02C54.78,54.78,55,55.32,55,55.88z"></path>
  <path fill="#ffe1d4" d="M40.29,59.29C40.74,59.75,41.36,60,42,60c0.55,0,1.05-0.22,1.41-0.59C43.78,59.05,44,58.55,44,58
		l0.29,0.29C44.75,58.75,45.36,59,46,59c0.55,0,1.05-0.22,1.41-0.59C47.78,58.05,48,57.55,48,57l0.29,0.29
		C48.75,57.75,49.36,58,50,58c0.55,0,1.05-0.22,1.41-0.59C51.78,57.05,52,56.55,52,56h0.88c0.808,0,1.502-0.459,1.857-1.123
		c-0.096-0.179-0.21-0.35-0.357-0.497L44.36,44.36l-2.76,2.31C40.56,47.53,39.26,48,37.92,48c-1.23,0-2.41-0.49-3.28-1.36
		C34.23,46.23,34,45.67,34,45.09c0-0.53,0.2-1.05,0.56-1.45L32,43v10h2L40.29,59.29z"></path>
  <path fill="#edb8ac" d="M56,42v14h-1.01C55,55.96,55,55.92,55,55.88c0-0.56-0.22-1.1-0.62-1.5L44.36,44.36l-2.76,2.31
		C40.56,47.53,39.26,48,37.92,48c-1.23,0-2.41-0.49-3.28-1.36C34.23,46.23,34,45.67,34,45.09c0-0.53,0.2-1.05,0.56-1.45
		c0.09-0.11,0.2-0.21,0.32-0.3l5.55-4.16c1.02-0.77,2.26-1.18,3.53-1.18c0.69,0,1.37,0.12,2.01,0.35L56,42z"></path>
  <rect width="6" height="18" x="26" y="40" fill="#c8c8c8"></rect>
  <path fill="#dcdcdc" d="M32,40v15c-1.66,0-3-1.34-3-3V40H32z"></path>
  <rect width="6" height="18" x="56" y="40" fill="#3c82c2"></rect>
  <path fill="#56a0d9" d="M56,40v15c1.657,0,3-1.343,3-3V40H56z"></path>
  <path d="M10,20c-0.551,0-1-0.448-1-1H7c0,1.302,0.839,2.402,2,2.816V23h2v-1.184c1.161-0.414,2-1.514,2-2.816c0-1.654-1.346-3-3-3
		c-0.551,0-1-0.448-1-1s0.449-1,1-1s1,0.448,1,1h2c0-1.302-0.839-2.402-2-2.816V11H9v1.184C7.839,12.598,7,13.698,7,15
		c0,1.654,1.346,3,3,3c0.551,0,1,0.448,1,1S10.551,20,10,20z"></path>
  <rect width="10" height="2" x="17" y="11"></rect>
  <rect width="14" height="2" x="17" y="15"></rect>
  <rect width="24" height="2" x="17" y="19"></rect>
  <path d="M18,29h22c0.552,0,1-0.447,1-1v-4c0-0.553-0.448-1-1-1H18c-0.552,0-1,0.447-1,1v4C17,28.553,17.448,29,18,29z M19,25h20v2
		H19V25z"></path>
  <rect width="16" height="2" x="5" y="31"></rect>
  <rect width="13" height="2" x="5" y="35"></rect>
  <path d="M16.708,56.293c-0.268-0.268-0.664-0.362-1.024-0.241L14,56.612V55c0-0.404-0.244-0.77-0.617-0.924
		c-0.375-0.156-0.804-0.069-1.09,0.217L11,55.586V55c0-1.654-1.346-3-3-3s-3,1.346-3,3v4h2v-4c0-0.552,0.449-1,1-1s1,0.448,1,1v3
		c0,0.404,0.244,0.77,0.617,0.924C9.741,58.976,9.871,59,10,59c0.26,0,0.516-0.102,0.707-0.293L12,57.414V58
		c0,0.321,0.154,0.623,0.416,0.812c0.261,0.188,0.595,0.239,0.901,0.137l2.462-0.82C16.536,58.694,17.451,59,18.414,59H20v-2h-1.586
		C17.769,57,17.163,56.749,16.708,56.293z"></path>
  <rect width="18" height="2" x="5" y="39"></rect>
  <rect width="16" height="2" x="5" y="43"></rect>
  <path d="M62,39h-6c-0.552,0-1,0.447-1,1v0.573l-6-2.182V2c0-0.553-0.448-1-1-1H6C5.448,1,5,1.447,5,2v3H2C1.448,5,1,5.447,1,6v56
		c0,0.553,0.448,1,1,1h39.999c1.043,0,1.964-0.535,2.502-1.345C44.961,61.881,45.471,62,46,62c1.043,0,1.963-0.535,2.501-1.345
		C48.961,60.881,49.472,61,50,61c1.304,0,2.416-0.836,2.829-2h0.049c0.808,0,1.566-0.311,2.149-0.866C55.095,58.62,55.495,59,56,59
		h6c0.552,0,1-0.447,1-1V40C63,39.447,62.552,39,62,39z M55,53.585L43.707,42.293l-1.414,1.414l0.589,0.589l-1.926,1.605
		C40.106,46.61,39.029,47,37.922,47c-0.972,0-1.887-0.379-2.575-1.066C35.127,45.713,35,45.406,35,45.094
		c0-0.372,0.178-0.727,0.475-0.95l5.555-4.166c1.296-0.973,3.077-1.239,4.604-0.684L55,42.7V53.585z M36,8.414L41.586,14H36V8.414z
		 M7,3h40v34.664l-0.684-0.249c-0.427-0.155-0.87-0.253-1.316-0.318V15c0-0.266-0.105-0.52-0.293-0.707l-9-9
		C35.52,5.105,35.265,5,35,5H7V3z M3,7h31v8c0,0.553,0.448,1,1,1h8v21.084c-1.141,0.162-2.244,0.598-3.17,1.294l-5.549,4.162
		L33,42.22V40c0-0.553-0.448-1-1-1h-6c-0.552,0-1,0.447-1,1v7H10v2h15v9c0,0.553,0.448,1,1,1h6c0.552,0,1-0.447,1-1v-2h0.586
		l4.999,5H3V7z M31,41v16h-4V41H31z M53.671,56.671C53.459,56.883,53.178,57,52.878,57h-0.343l-1.703-2.555l-1.664,1.109
		l1.785,2.678C50.846,58.669,50.469,59,50,59c-0.378,0-0.733-0.146-1-0.414l-0.223-0.223l-1.945-2.918l-1.664,1.109l1.785,2.678
		C46.846,59.669,46.469,60,46,60c-0.378,0-0.733-0.146-1-0.414l-0.223-0.223l-1.945-2.918l-1.664,1.109l1.785,2.677
		C42.845,60.668,42.468,61,41.999,61c-0.378,0-0.733-0.147-1-0.414l-6.292-6.293C34.52,54.105,34.265,54,34,54h-1v-8.906V44.28
		l0.106,0.026C33.04,44.562,33,44.826,33,45.094c0,0.852,0.332,1.652,0.934,2.254C35,48.413,36.416,49,37.922,49
		c1.573,0,3.105-0.555,4.314-1.562l2.066-1.722l9.368,9.368C53.883,55.297,54,55.579,54,55.878
		C54,56.178,53.883,56.46,53.671,56.671z M61,57h-4V41h4V57z"></path>
</svg>
