<svg xmlns="http://www.w3.org/2000/svg" enable-background="new 0 0 64 64" viewBox="0 0 64 64" id="calendar">
  <path fill="#80cbc4" d="M58,9H6c-0.6,0-1,0.4-1,1v8c0,0.6,0.4,1,1,1h52c0.6,0,1-0.4,1-1v-8C59,9.4,58.6,9,58,9z"></path>
  <path fill="#b2dfdb" d="M59,16H5v37c0,0.6,0.4,1,1,1h52c0.6,0,1-0.4,1-1V16z"></path>
  <circle cx="49" cy="49" r="10" fill="#fbc02d"></circle>
  <path fill="#263238" d="M25 20h-6c-.6 0-1 .4-1 1v6c0 .6.4 1 1 1h6c.6 0 1-.4 1-1v-6C26 20.4 25.6 20 25 20zM35 20h-6c-.6 0-1 .4-1 1v6c0 .6.4 1 1 1h6c.6 0 1-.4 1-1v-6C36 20.4 35.6 20 35 20zM45 20h-6c-.6 0-1 .4-1 1v6c0 .6.4 1 1 1h6c.6 0 1-.4 1-1v-6C46 20.4 45.6 20 45 20zM55 20h-6c-.6 0-1 .4-1 1v6c0 .6.4 1 1 1h6c.6 0 1-.4 1-1v-6C56 20.4 55.6 20 55 20z"></path>
  <path fill="#c62828" d="M15,30H9c-0.6,0-1,0.4-1,1v6c0,0.6,0.4,1,1,1h6c0.6,0,1-0.4,1-1v-6C16,30.4,15.6,30,15,30z"></path>
  <path fill="#263238" d="M35,30h-6c-0.6,0-1,0.4-1,1v6c0,0.6,0.4,1,1,1h6c0.6,0,1-0.4,1-1v-6C36,30.4,35.6,30,35,30z"></path>
  <path fill="#388e3c" d="M21,37c-0.3,0-0.5-0.1-0.7-0.3l-2-2c-0.4-0.4-0.4-1,0-1.4s1-0.4,1.4,0l1.3,1.3l3.3-3.3c0.4-0.4,1-0.4,1.4,0
			s0.4,1,0,1.4l-4,4C21.5,36.9,21.3,37,21,37z"></path>
  <path fill="#263238" d="M45 30h-6c-.6 0-1 .4-1 1v6c0 .6.4 1 1 1h6c.6 0 1-.4 1-1v-6C46 30.4 45.6 30 45 30zM55 30h-6c-.6 0-1 .4-1 1v6c0 .6.4 1 1 1h6c.6 0 1-.4 1-1v-6C56 30.4 55.6 30 55 30z"></path>
  <path fill="#c62828" d="M15,40H9c-0.6,0-1,0.4-1,1v6c0,0.6,0.4,1,1,1h6c0.6,0,1-0.4,1-1v-6C16,40.4,15.6,40,15,40z"></path>
  <path fill="#263238" d="M25 40h-6c-.6 0-1 .4-1 1v6c0 .6.4 1 1 1h6c.6 0 1-.4 1-1v-6C26 40.4 25.6 40 25 40zM35 40h-6c-.6 0-1 .4-1 1v6c0 .6.4 1 1 1h6c.6 0 1-.4 1-1v-6C36 40.4 35.6 40 35 40zM32 14c-.6 0-1-.4-1-1V6c0-.6.4-1 1-1s1 .4 1 1v7C33 13.6 32.6 14 32 14zM42 14c-.6 0-1-.4-1-1V6c0-.6.4-1 1-1s1 .4 1 1v7C43 13.6 42.6 14 42 14zM52 14c-.6 0-1-.4-1-1V6c0-.6.4-1 1-1s1 .4 1 1v7C53 13.6 52.6 14 52 14zM22 14c-.6 0-1-.4-1-1V6c0-.6.4-1 1-1s1 .4 1 1v7C23 13.6 22.6 14 22 14zM12 14c-.6 0-1-.4-1-1V6c0-.6.4-1 1-1s1 .4 1 1v7C13 13.6 12.6 14 12 14z"></path>
  <path fill="#f57f17" d="M49.7,48h-1.3c-0.2,0-0.3,0-0.3-0.1v-0.7c0,0,0,0,0-0.1c0,0,0.1-0.1,0.3-0.1h1.3c0.2,0,0.3,0.1,0.3,0.1
		c0.1,0.5,0.6,0.9,1.1,0.9c0.5-0.1,0.9-0.6,0.9-1.1c-0.1-1-0.9-1.7-2-1.8v-1c0-0.6-0.4-1-1-1s-1,0.4-1,1v1c-1,0.1-1.8,0.8-2,1.7
		c0,0.2,0,0.3,0,0.4V48c0,1.1,1,2,2.3,2h1.3c0.2,0,0.3,0,0.3,0.1v0.8c-0.1,0-0.2,0.1-0.3,0.1h-1.3c-0.2,0-0.3-0.1-0.3-0.1
		c-0.1-0.5-0.5-0.9-1.1-0.9c-0.5,0.1-0.9,0.6-0.9,1.1c0.1,1,0.9,1.7,2,1.9v1c0,0.6,0.4,1,1,1s1-0.4,1-1v-1c1.1-0.1,2-1,2-2v-1
		C52,48.9,51,48,49.7,48z"></path>
</svg>
