<svg xmlns="http://www.w3.org/2000/svg" xml:space="preserve" width="110" height="110" version="1.0" viewBox="0 0 110 110" id="settings">
  <g id="R-Multicolor">
    <circle cx="55" cy="55" r="55" fill="#FABC3D"></circle>
    <path fill="#F0F1F1" d="M87 79a8 8 0 0 1-8 8H31a8 8 0 0 1-8-8V31a8 8 0 0 1 8-8h48a8 8 0 0 1 8 8v48z"></path>
    <path fill="#FFF" d="M79 23H31a8 8 0 0 0-8 8v48c0 2.259.94 4.296 2.447 5.75l59.304-59.304A7.972 7.972 0 0 0 79 23z"></path>
    <path fill="#3E3E3F" d="M41 72.5a4 4 0 0 1-8 0v-36a4 4 0 0 1 8 0v36zM59 72.5a4 4 0 0 1-8 0v-36a4 4 0 0 1 8 0v36zM77 72.5a4 4 0 0 1-8 0v-36a4 4 0 0 1 8 0v36z"></path>
    <path fill="#17B198" d="M44 47c0-1.105-1.045-2-2.333-2h-9.333C31.045 45 30 45.895 30 47v4c0 1.105 1.045 2 2.333 2h9.333C42.955 53 44 52.105 44 51v-4zM80 47c0-1.105-1.045-2-2.333-2h-9.333C67.045 45 66 45.895 66 47v4c0 1.105 1.045 2 2.333 2h9.333C78.955 53 80 52.105 80 51v-4z"></path>
    <path fill="#FA5655" d="M62 59c0-1.105-1.045-2-2.333-2h-9.333C49.045 57 48 57.895 48 59v4c0 1.105 1.045 2 2.333 2h9.333C60.955 65 62 64.105 62 63v-4z"></path>
  </g>
</svg>
