<svg xmlns="http://www.w3.org/2000/svg" viewBox="0 0 32 32" id="cloud-computing">
  <g>
    <path fill="#f45151" d="m30,13.0799561c0,1.4100342-1,2.5900269-2.3300171,2.8600464-.1900024.039978-.3899536.0599976-.5899658.0599976H4.9199829c-.2000122,0-.3999634-.0200195-.5899658-.0599976-1.3300171-.2700195-2.3300171-1.4500122-2.3300171-2.8600464,0-1.5499878,1.210022-2.8099976,2.7399902-2.8999634-.2700195-.539978-.4099731-1.1300049-.4099731-1.7600098,0-2.25,1.8399658-4.0900269,4.0899658-4.0900269.2600098,0,.5200195.0300293.7700195.0700073.4500122-1.3999634,1.7600098-2.3999634,3.3099976-2.3999634,1.9400024,0,3.5,1.5599976,3.5,3.5,0-1.9400024,1.5599976-3.5,3.5-3.5,1.5499878,0,2.8599854,1,3.3099976,2.3999634.25-.039978.5100098-.0700073.7700195-.0700073,2.25,0,4.0899658,1.8400269,4.0899658,4.0900269,0,.6300049-.1399536,1.2200317-.4099731,1.7600098,1.5299683.0899658,2.7399902,1.3499756,2.7399902,2.8999634Z"></path>
    <path fill="#ffc943" d="m11,28c0,.5499878-.2199707,1.0499878-.5900269,1.4099731-.3599854.3699951-.8599854.5900269-1.4099731.5900269h-4c-1.0999756,0-2-.9000244-2-2h8Z"></path>
    <path fill="#43b3ff" d="m29,28c0,1.0999756-.9000244,2-2,2h-4c-.5499878,0-1.0499878-.2200317-1.4099731-.5900269-.3700562-.3599854-.5900269-.8599854-.5900269-1.4099731h8Z"></path>
    <rect width="6" height="4" x="4" y="24" fill="#f2f2f2"></rect>
    <rect width="6" height="4" x="22" y="24" fill="#f2f2f2"></rect>
  </g>
  <g>
    <g>
      <path d="m27.9473267,9.7948608c.1420898-.4395752.2196655-.8996582.2196655-1.3778687,0-2.5273438-2.0566406-4.5839844-4.5839844-4.5839844-.1550903,0-.2994995.0269165-.449585.0411987-.6317139-1.4317627-2.0385132-2.3742065-3.6334229-2.3742065-1.5162354,0-2.8218384.8572998-3.500061,2.1035156-.6783447-1.2462158-1.9840698-2.1035156-3.499939-2.1035156-1.6013184,0-3.0133667.9503784-3.6344604,2.3740845-.1497803-.0142212-.2937622-.0410767-.4490356-.0410767-2.5268555,0-4.5830078,2.0566406-4.5830078,4.5839844,0,.4794312.0773926.9393921.2190552,1.3778687-1.4643555.3857422-2.5525513,1.7058716-2.5525513,3.2852173,0,1.6191406,1.1484375,3.0283203,2.7270508,3.3496094.2211914.046875.4545898.0703125.6928711.0703125h9.0800781c.2763672,0,.5-.2236328.5-.5s-.2236328-.5-.5-.5H4.9199219c-.1694336,0-.3330078-.0166016-.4902344-.0498047-1.1181641-.2275391-1.9296875-1.2236328-1.9296875-2.3701172,0-1.3291016,1.0854492-2.4101562,2.4199219-2.4101562.5332031,0,1.0336914.1660156,1.4487305.4785156.2182617.1669922.5336914.1230469.7001953-.0966797.1665039-.2207031.1230469-.5341797-.0976562-.7001953-.5438843-.4118652-1.1920776-.6347656-1.8799438-.6681519-.1576538-.3984375-.2577515-.8182983-.2577515-1.2664185,0-1.9765625,1.6074219-3.5839844,3.5830078-3.5839844.0479736,0,.090271.0108032.1375122.0125122-.0352173.2092285-.0540161.4274902-.0540161.65448,0,.2763672.2236328.5.5.5s.5-.2236328.5-.5c0-.3408203.0517578-.6503906.1621094-.9423828.3999023-1.2304688,1.5405273-2.0576172,2.8378906-2.0576172,1.6542969,0,3,1.3457031,3,3s-1.3457031,3-3,3c-.2763672,0-.5.2236328-.5.5s.2236328.5.5.5c1.5158691,0,2.8215942-.8572998,3.499939-2.1035156.6782227,1.2462158,1.9838257,2.1035156,3.500061,2.1035156.2763672,0,.5-.2236328.5-.5s-.2236328-.5-.5-.5c-1.6542969,0-3-1.3457031-3-3s1.3457031-3,3-3c1.2978516,0,2.4375.8271484,2.8457031,2.0800781.1025391.2705078.1542969.5800781.1542969.9199219,0,.2763672.2236328.5.5.5s.5-.2236328.5-.5c0-.2279663-.0185547-.4472046-.0531616-.6546021.0466919-.0016479.0887451-.0123901.1361694-.0123901,1.9765625,0,3.5839844,1.6074219,3.5839844,3.5839844,0,.4464722-.1002808.8665161-.2577515,1.2664185-.6875.0332642-1.3355103.2561646-1.8799438.6671753-.2207031.1669922-.2646484.4804688-.0986328.7011719.1679688.2207031.4794922.2617188.7011719.0976562.4150391-.3134766.9160156-.4794922,1.4482422-.4794922,1.3339844,0,2.4199219,1.0810547,2.4199219,2.4101562,0,1.1464844-.8115234,2.1425781-1.9335938,2.3710938-.1533203.0322266-.3164062.0488281-.4863281.0488281h-9.0800781c-.2763672,0-.5.2236328-.5.5s.2236328.5.5.5h9.0800781c.2392578,0,.4726562-.0234375.6894531-.0693359,1.5820312-.3222656,2.7304688-1.7314453,2.7304688-3.3505859,0-1.5793457-1.0881958-2.8995361-2.5526733-3.2852173Z"></path>
      <path d="M7.8334961 14.1669922c1.5620117 0 2.8330078-1.2714844 2.8330078-2.8339844 0-.2763672-.2236328-.5-.5-.5s-.5.2236328-.5.5c0 1.0117188-.8222656 1.8339844-1.8330078 1.8339844-.2763672 0-.5.2236328-.5.5s.2236328.5.5.5zM21.8330078 10.8330078c-.2763672 0-.5.2236328-.5.5 0 1.5625 1.2714844 2.8339844 2.8339844 2.8339844.2763672 0 .5-.2236328.5-.5s-.2236328-.5-.5-.5c-1.0117188 0-1.8339844-.8222656-1.8339844-1.8339844 0-.2763672-.2236328-.5-.5-.5zM7.8334961 8.3330078c.3676758 0 .6665039.2988281.6665039.6669922 0 .2763672.2236328.5.5.5s.5-.2236328.5-.5c0-.9189453-.7475586-1.6669922-1.6665039-1.6669922-.2763672 0-.5.2236328-.5.5s.2236328.5.5.5zM23.5 9c0-.3681641.2988281-.6669922.6669922-.6669922.2763672 0 .5-.2236328.5-.5s-.2236328-.5-.5-.5c-.9189453 0-1.6669922.7480469-1.6669922 1.6669922 0 .2763672.2236328.5.5.5s.5-.2236328.5-.5zM13.6665039 12c-.2763672 0-.5.2236328-.5.5s.2236328.5.5.5c.3676758 0 .6669922.2988281.6669922.6669922 0 .2763672.2236328.5.5.5s.5-.2236328.5-.5c0-.9189453-.7480469-1.6669922-1.6669922-1.6669922zM17.6669922 13.6669922c0-.3681641.2988281-.6669922.6660156-.6669922.2763672 0 .5-.2236328.5-.5s-.2236328-.5-.5-.5c-.9189453 0-1.6660156.7480469-1.6660156 1.6669922 0 .2763672.2236328.5.5.5s.5-.2236328.5-.5zM11 27.5h-.5v-3.5c0-.2763672-.2236328-.5-.5-.5h-6c-.2763672 0-.5.2236328-.5.5v3.5h-.5c-.2763672 0-.5.2236328-.5.5 0 1.3789062 1.121582 2.5 2.5 2.5h4c1.378418 0 2.5-1.1210938 2.5-2.5 0-.2763672-.2236328-.5-.5-.5zm-6.5-3h5v3h-5v-3zm4.5 5h-4c-.6518555 0-1.2080078-.4179688-1.4145508-1h6.8291016c-.206543.5820312-.7626953 1-1.4145508 1zM29 27.5h-.5v-3.5c0-.2763672-.2236328-.5-.5-.5h-6c-.2763672 0-.5.2236328-.5.5v3.5h-.5c-.2763672 0-.5.2236328-.5.5 0 1.3789062 1.1210938 2.5 2.5 2.5h4c1.3789062 0 2.5-1.1210938 2.5-2.5 0-.2763672-.2236328-.5-.5-.5zm-6.5-3h5v3h-5v-3zm4.5 5h-4c-.6523438 0-1.2080078-.4179688-1.4140625-1h6.828125c-.2060547.5820312-.7617188 1-1.4140625 1zM24.5 22c0 .2763672.2236328.5.5.5s.5-.2236328.5-.5v-2c0-.2763672-.2236328-.5-.5-.5h-8.5v-1.5c0-.2763672-.2236328-.5-.5-.5s-.5.2236328-.5.5v1.5H7c-.2763672 0-.5.2236328-.5.5v2c0 .2763672.2236328.5.5.5s.5-.2236328.5-.5v-1.5h17v1.5z"></path>
      <circle cx="16" cy="16" r=".5"></circle>
    </g>
  </g>
</svg>
